<!-- Gander activity-bar icon. VS Code applies this as a mask, so it must be a solid
     single-color silhouette — the theme supplies the color. A goose, naturally. -->
<svg xmlns="http://www.w3.org/2000/svg" viewBox="0 0 24 24" fill="currentColor">
  <path fill-rule="evenodd" d="M15.6 2.4c-1.5 0-2.8 1-3.2 2.5l-.3 1.1c-.6 2.4-1.6 3.9-3.3 5.2-1.2.9-2.7 1.7-4.5 2.4-.8.3-1 1.3-.4 1.9C5.8 17.6 8.6 19 12 19c4.9 0 8.2-2.9 8.2-7.2V8.6l2.3-1c.5-.2.5-1 0-1.2l-2.4-1.1C19.4 3.5 17.8 2.4 16 2.4h-.4ZM16.6 4.15a.85.85 0 1 1 0 1.7.85.85 0 1 1 0-1.7Z"/>
  <path d="M4.5 20.6h15a.7.7 0 1 1 0 1.4h-15a.7.7 0 1 1 0-1.4Z"/>
</svg>
